# xmcd
#
# Track frame offsets: 
#        150
#        16335
#        33408
#        49359
#        66139
#        83853
#        98803
#        114437
#        132240
#        147233
#        163177
#        181321
#        198195
#
# Disc length: 2885 seconds
#
# Revision: 0
# Processed by: cddbd v1.5.2PL0 Copyright (c) Steve Scherf et al.
# Submitted via: ExactAudioCopyFreeDBPlugin 1.0
#
DISCID=b00b430d
DTITLE=Noel Gourdin - After My Time
DYEAR=1900
DGENRE=
TTITLE0=One Love
TTITLE1=Better Man
TTITLE2=The River
TTITLE3=Open
TTITLE4=Hurts Like Hell
TTITLE5=Led You On
TTITLE6=Reach
TTITLE7=I Fell
TTITLE8=P.Y.T.
TTITLE9=Sorry
TTITLE10=Summertime
TTITLE11=Too Late
TTITLE12=Make The Most
EXTD=
EXTT0=
EXTT1=
EXTT2=
EXTT3=
EXTT4=
EXTT5=
EXTT6=
EXTT7=
EXTT8=
EXTT9=
EXTT10=
EXTT11=
EXTT12=
PLAYORDER=
